/* XPM */
static char *result[] = {
/* columns rows colors chars-per-pixel */
"32 32 10 1 ",
"  c black",
". c #70162B",
"X c #453625",
"o c #D41900",
"O c #07BB79",
"+ c #82A368",
"@ c #8D768A",
"# c #FAFA82",
"$ c #DEF9FC",
"% c None",
/* pixels */
"%%%%%%%%%%%%%%%%%%%%%%%%%%%%%%%%",
"%%%%%%%%%%%%oo%%%%%%%%%%%%%%%%%%",
"%%%%%%%%%%%oooo%%%%%%%%%%%%%%%%%",
"%%%%%#%%%%ooooo..%%%%%%%%%%%%%%%",
"%%%%%#%%%%%oooo..%%%%%%%%%%%%%%%",
"%%%%%#%%%%%oooo.o%%%%%%%%%%%%%%%",
"%%%#%#%#%%ooooo.o%%%%%%%%%%%%%%%",
"%%#######%ooooo.o%%%%%%%%%%%%%%%",
"%%%#%#%#%%$$$$$$$o%o%%%%%%%%%%%%",
"%%%%###%%% $$  $@ooo%o%%%%%%%%%%",
"%%%%%#%%%%$ $$$$@ooooo.%%%%%%%%%",
"%%%%%X%%%%$  $$$$ooooo.o%%%%%%%%",
"%%%%%X%%%% $$  $$ooooo.o%%%%%%%%",
"%%%%%X%%%o@ $  $$oooo.o%%%%%%%%%",
"%%%%%X%%..@ $  $ooooo.o%%o%%%%%%",
"%%%%%X%%..o$$ $$oooo.oooooo%%%%%",
"%%%%%X%....o$$$ooo..ooooooo%%%%%",
"%%%%$$$$..o.......oooooooo%%%%%%",
"%%%%$$$$.%oooooooooooooooo%%%%%%",
"%%%%$$$$.%+ooooooo+++oooooo%%%%%",
"%%%%%$$%%%+++OO+++oo.oooooo%%%%%",
"%%%%%X%%%%%ooO+ooooo.ooo%o%%%%%%",
"%%%%%X%%%%%ooo+oooooo.oo%o%%%%%%",
"%%%%%X%%%%%ooo+ooooooo$$$%%%%%%%",
"%%%%%X%%%%%ooo+ooooooooo%%%%%%%%",
"%%%%%X%%%%%ooooooooooooo%%%%%%%%",
"%%%%%X%%%%%o%ooooooooooo%%%%%%%%",
"%%%%%X%%%%%o%ooooooooooo%%%%%%%%",
"%%%%%%%%%%%%ooooooo%oooo%%%%%%%%",
"%%%%%%%%%%%%%ooooo%%oo%%%%%%%%%%",
"%%%%%%%%%%%%%%%%%%%%%%%%%%%%%%%%",
"%%%%%%%%%%%%%%%%%%%%%%%%%%%%%%%%"
};
