/* XPM */
static char *result[] = {
/* columns rows colors chars-per-pixel */
"32 32 8 1 ",
"  c black",
". c #453625",
"X c #14605D",
"o c #A84111",
"O c #82A368",
"+ c #A5B5D4",
"@ c #DEF9FC",
"# c None",
/* pixels */
"################################",
"################################",
"################################",
"################################",
"################################",
"################################",
"################################",
"################################",
"################################",
"################################",
"################################",
"################################",
"################################",
"########XX######################",
"#########XXOOOO#OOO#############",
"########OOOOOOOOXX##############",
"#########OOO  OX################",
"#######@##OOOOOO################",
"######@+###  @OO################",
"######@+##OOOOOoOOO#############",
"######@O##XoooooOOOO############",
"######OOXXXXooooo#OOO###########",
"######OOOX##.oooo##OO###########",
"######oo####......#OO###########",
"###########...#ooo##############",
"##########XX.###OOO#############",
"###########XX####OO#############",
"###########..####oo#############",
"##########...####oo#############",
"################################",
"################################",
"################################"
};
