/* XPM */
static char *result[] = {
/* columns rows colors chars-per-pixel */
"32 32 9 1 ",
"  c black",
". c #14605D",
"X c #812611",
"o c #A84111",
"O c #82A368",
"+ c #8D768A",
"@ c #FAFA82",
"# c #DEF9FC",
"$ c None",
/* pixels */
"$$$$$$$$$$$$$$$$$$$$$$$$$$$$$$$$",
"$$$$$$$$$$$$$$$$$$$$$$$$$$$$$$$$",
"$$$$$$$$$$$$$$$$$$$$$$$$$$$$$$$$",
"$$$$$$$$$$$$$$$$$$$$$$$$$$$$$$$$",
"$$$$$$$$$$$$$$$$$$$$$$$$$$$$$$$$",
"$$$$$$$$$$$$$$$$$$$$$$$$$$$$$$$$",
"$$$$$$$$$$$$$$$$$$$$$$$$$$$$$$$$",
"$$$$$$$$$$$$$$$$$$$$$$$$$$$$$$$$",
"$$$$$$$$$$$$$$$$$$$$$$$$$$$$$$$$",
"$$$$$$$$$$$$$$$$$$$$$$$$$$$$$$$$",
"$$$$$$$$$$$$$$$$$$$$$$$$$$$$$$$$",
"$$$$$$$$$$$$$$$$$$$$$$$$$$$$$$$$",
"$$$$$$$$$$$$$$$$$$$$$$$$$$$$$$$$",
"$$$$$$$$$$$$$$$$..OOO$OOO$$$$$$$",
"$$$$$$$$$$$$$$$$OOOOOO..$$$$$$$$",
"$$$$$$$$$$$$$$$OOOO  O.$$$$$$$$$",
"$$$$$$$$$$$$$$$$$OOOOOO$$$$$$$$$",
"$$$$$$$$$$$$$$$$$$  #OOoO$$$$$$$",
"$$$$$$$$$$$$$$$$$OOOOOoOO$$$$$$$",
"$$$$$$$$$$$$$$$$$OOOOoOOOO$$$$$$",
"$$$$$$$$$$$$$$$.OooooO@OOO$$$$$$",
"$$$$$$$$$$$$$$$.O@O@OOOOOOO$$$$$",
"$$$$$$$$$$$$$$..OOO@OOO$$OOO$$$$",
"$$$$$$$$$$$$$$.OOOOOOOo$$$OO$$$$",
"$$$$+$$$$$$$$O.oOOOOOoO$$$OO$$$$",
"$$$$$+$+$$$$OOX.oooooOOO$OOO$$$$",
"$$$$$+$$+$XXXO$..oooOOOO$$OO$$$$",
"$$$$$XXX+XXXX$$...ooOOOOO$O$$$$$",
"$$$$XXXXXXX$.$$$...$$OOOO$$$$$$$",
"$$$$XXXXXX$$$$$$$..$$$$OOO$$$$$$",
"$$$$$$$$$$$$$$$$...$$$$OOO$$$$$$",
"$$$$$$$$$$$$$$$$$$$$$$$$$$$$$$$$"
};
