/* XPM */
static char *result[] = {
/* columns rows colors chars-per-pixel */
"32 32 8 1 ",
"  c black",
". c #222034",
"X c #812611",
"o c #3B6983",
"O c #00EDFF",
"+ c #D3D9B2",
"@ c #DEF9FC",
"# c None",
/* pixels */
"################################",
"#######XXXX#####################",
"######XX##XX####################",
"######X####XX#X#################",
"######X####XXX##################",
"#####X#X####X###################",
"#######X####X###################",
"############X###################",
"######OO####X###################",
"#####O@@O###X###################",
"#####O@@O##X####################",
"######OO###X###+################",
"###########X##+######+##########",
"##########XX##+#+++#+###########",
"#########X#X###++++++###########",
"###########X###+++++############",
"###########XX#++++ +############",
"###########X##+++  +o###########",
"###########X##+++ +ooo##########",
"###########+o#++++ooooo#########",
"##########+Xoo+++ooooooo########",
"##########+++oo+oooooooo########",
"##########++.ooooooooooo########",
"##########o+.oooooooooooo#######",
"##########oX.oooooooooooo#######",
"###########Xooooooooooooo#######",
"##########XX##oooooo.oooo#######",
"###########X#ooooooo.oooo#######",
"###########X#oooooooo..#########",
"###########X##ooooooooo#########",
"##################oooo##########",
"################################"
};
