/* XPM */
static char *result[] = {
/* columns rows colors chars-per-pixel */
"32 32 9 1 ",
"  c black",
". c #70162B",
"X c #14605D",
"o c #A84111",
"O c #FF4D00",
"+ c #82A368",
"@ c #FAFA82",
"# c #DEF9FC",
"$ c None",
/* pixels */
"$$$$$$$$$$$$$$$$$$$$$$$$$$$$$$$$",
"$$$$$$$$$$$$$$$$$$$$$$$$$$$$$$$$",
"$$$$$$$$$$$$$$$$$$$$$$$$$$$$$$$$",
"$$$$$$$$$$$$$$$$$$$$$$$$$$$$$$$$",
"$$$$$$$$$$$$$$$$$$$$$$$$$$$$$$$$",
"$$$$$$$$$$$$$$$$$$$$$$$$$$$$$$$$",
"$$$$$$$$$$$$$$$$$$$$$$$$$$$$$$$$",
"$$$$$$$$$$$$$$$$$$$$$$$$$$$$$$$$",
"$$$$$$$$$$$$$$$$$$$$$$$$$$$$$$$$",
"$$$$$$$$$$$$$$$$$$$$$$$$$$$$$$$$",
"$$$$$$$$$$$$$$$$$$$$$$$$$$$$$$$$",
"$$$$$$$$$$$$$$$$$$$$$$$$$$$$$$$$",
"$$$$$$$$$$$$$$$$$$$$$$$$o$$$$$$$",
"$$$$$$$$$$$$$...$$$$$$$o$$$$$$$$",
"$$$$$$$$$$$$$$$..$$$$$$oo$$$$$$$",
"$$$$$$$$$$$$$.....$$$$$$oo$$$$$$",
"$$$$$$$$$$$$......++$$$$$o$$$$$$",
"$$$$$$$$O$++++++.+++$$$ooo$$$$$$",
"$$$$$$$OO$$+++  +X$+$$oo$$$$$$$$",
"$$$$$$$O@O$$++++++.$$$o$$$$$$$$$",
"$$$$$$$$O$$$$  #++..$$o$$$$$$$$$",
"$$$$$$+$$+$..++++...$+++$$$$$$$$",
"$$$$$$$+++............++$$$$$$$$",
"$$$$$$++++ .......... ++$$$$$$$$",
"$$$$$$$$$. ........O. o.$$$$$$$$",
"$$$$$$$$$$..$O....O...o$$$$$$$$$",
"$$$$$$$$$$.$$.OOOOO.$.o$$$$$$$$$",
"$$$$$$$$$$$$......O..$$o$$$$$$$$",
"$$$$$$$$$$$.......O..$$o$$$$$$$$",
"$$$$$$$$$$$..........$o$$$$$$$$$",
"$$$$$$$$$$$$$$......$$o$$$$$$$$$",
"$$$$$$$$$$$$$$$$$$$$$$o$$$$$$$$$"
};
