/* XPM */
static char *result[] = {
/* columns rows colors chars-per-pixel */
"32 32 12 1 ",
"  c black",
". c #70162B",
"X c #472138",
"o c #2F1D5A",
"O c #812611",
"+ c #FF4D00",
"@ c #3B6983",
"# c #8D768A",
"$ c #FCA89D",
"% c #FAE898",
"& c #DEF9FC",
"* c None",
/* pixels */
"********************************",
"********************************",
"********************************",
"********************************",
"******#*************************",
"******#*************************",
"******#*#***********************",
"******##************************",
"*****..*********....************",
"*****.***%%***.....**%%*********",
"*****.**%*%%*.......%%%%*%******",
"*****..***%%%.....%%%%*%%*******",
"*****#*.***%.......%%..*********",
"*****#******.    ...X...********",
"*****#*****. $$$$ ..X....*******",
"******#***. &$$$$& ..X...*******",
"*******#**. & $  && .X....******",
"*******#**..&$$$$&&&.X.....*****",
"******$#$.X.& $  &&&X......*****",
"*****.$$ ..X&&  $&&&X.$$$ .*****",
"*****.$$$...&&$$.&&&..$$$+.*****",
"*****.$# ...&&o.o&&&.$$+$ .*****",
"*****.  #...&&@o@&&&@.$   .*****",
"******. #..*&&@.@&&&@@+  .******",
"*******#..**&&@.@&&&@@+. .******",
"******#*.***&@@@@&@&@@%@.*******",
"******#****@&@@@@&@@@%% @*******",
"*******#***@@@@@@&@@@% %@@******",
"*******#***@@@@@@@@@@@%@@@******",
"*******#**...@@@@@@@@@@@********",
"*******#************OOO*********",
"********************************"
};
