/* XPM */
static char *result[] = {
/* columns rows colors chars-per-pixel */
"32 32 8 1 ",
"  c #0F1833",
". c #453625",
"X c #472138",
"o c #8C6A56",
"O c #BAA368",
"+ c #42428F",
"@ c #748F93",
"# c None",
/* pixels */
"################################",
"################################",
"################################",
"################################",
"################################",
"################################",
"########X...........OO##########",
"#######.X............O##########",
"#######.X.ooo.ooo.ooo.@#########",
"#######.X.oo.......oo.@@########",
"#######.X...........o.@@@o######",
"#######.X.o.........o.@@@o######",
"#######.X.o..ooo.o..o.@@@X######",
"#######.X.o...........@@@X######",
"#######.X....ooooo..o.@@@X######",
"#######.X.o.........o.@@@X######",
"#######.X.o..o.ooo..o.@@@X######",
"#######.X.o.........o.@@@X######",
"#######.X.o.........o.@@@X######",
"#######.X.oo.......oo.@@@X######",
"#######.X.oooooooo.oo.@@@X######",
"#######.X............O@@@X######",
"#######.X...........OO@@@X######",
"#######.X             @@@X######",
"#######X+++++++++++++++@@X######",
"#######X++++++++++++++++@X######",
"########X++++++++++++++++o######",
"#########XXXXXXXXXXXXXXXoo######",
"################################",
"################################",
"################################",
"################################"
};
