/* XPM */
static char *e3e4d556e707467187970a9d389f0c338fcPtiR66qmrkAYz[] = {
/* columns rows colors chars-per-pixel */
"64 64 3 1 ",
"  c #3A6426",
". c #5B851E",
"X c #7B9D25",
/* pixels */
"                                                    XXXX        ",
"                                                    XXXX        ",
"                                                    XXXX        ",
"                                                    XXXX        ",
"    ....................................    XXXX....XXXX........",
"    ....................................    XXXX....XXXX........",
"    ....................................    XXXX....XXXX........",
"    ....................................    XXXX....XXXX........",
"    ............................    ....    XXXXXXXXXXXXXXXX    ",
"    ............................    ....    XXXXXXXXXXXXXXXX    ",
"    ............................    ....    XXXXXXXXXXXXXXXX    ",
"    ............................    ....    XXXXXXXXXXXXXXXX    ",
"    ................XXXX........................................",
"    ................XXXX........................................",
"    ................XXXX........................................",
"    ................XXXX........................................",
"    ................XXXX........................................",
"    ................XXXX........................................",
"    ................XXXX........................................",
"    ................XXXX........................................",
"    ........XXXX....XXXXXXXX....XXXX............................",
"    ........XXXX....XXXXXXXX....XXXX............................",
"    ........XXXX....XXXXXXXX....XXXX............................",
"    ........XXXX....XXXXXXXX....XXXX............................",
"    ........XXXX    XXXXXXXXXXXXXXXX................    ........",
"    ........XXXX    XXXXXXXXXXXXXXXX................    ........",
"    ........XXXX    XXXXXXXXXXXXXXXX................    ........",
"    ........XXXX    XXXXXXXXXXXXXXXX................    ........",
"    ............................................        ....    ",
"    ............................................        ....    ",
"    ............................................        ....    ",
"    ............................................        ....    ",
"    ............................................................",
"    ............................................................",
"    ............................................................",
"    ............................................................",
"    ............    ............................................",
"    ............    ............................................",
"    ............    ............................................",
"    ............    ............................................",
"    ............    ............................XXXX............",
"    ............    ............................XXXX............",
"    ............    ............................XXXX............",
"    ............    ............................XXXX............",
"    ....    ....        ....    ........XXXX....XXXX............",
"    ....    ....        ....    ........XXXX....XXXX............",
"    ....    ....        ....    ........XXXX....XXXX............",
"    ....    ....        ....    ........XXXX....XXXX............",
"    ....................................XXXX....XXXX    XXXX....",
"    ....................................XXXX....XXXX    XXXX....",
"    ....................................XXXX....XXXX    XXXX....",
"    ....................................XXXX....XXXX    XXXX....",
"    ............................XXXX....XXXXXXXXXXXX    XXXX....",
"    ............................XXXX....XXXXXXXXXXXX    XXXX....",
"    ............................XXXX....XXXXXXXXXXXX    XXXX....",
"    ............................XXXX....XXXXXXXXXXXX    XXXX....",
"    ............................................................",
"    ............................................................",
"    ............................................................",
"    ............................................................",
"    ........    ....    ............................XXXX........",
"    ........    ....    ............................XXXX........",
"    ........    ....    ............................XXXX........",
"    ........    ....    ............................XXXX........"
};
