/* XPM */
static char *_ea13b1133894ed8dee129b494c97d0b04eCwYEt0hqeECA2[] = {
/* columns rows colors chars-per-pixel */
"64 64 4 1 ",
"  c None",
". c #A54D34",
"X c #D78632",
"o c #F0A53B",
/* pixels */
"                                                                ",
"                                                                ",
"                                                                ",
"                                                                ",
"                                                                ",
"                                                                ",
"                                                                ",
"                                                                ",
"                XXXXXXXXXXXXXXXXXXXXXXXXXXXXXXXX                ",
"                XXXXXXXXXXXXXXXXXXXXXXXXXXXXXXXX                ",
"                XXXXXXXXXXXXXXXXXXXXXXXXXXXXXXXX                ",
"                XXXXXXXXXXXXXXXXXXXXXXXXXXXXXXXX                ",
"            XXXXXXXXooooooooooooooooooooooooXXXXXXXX            ",
"            XXXXXXXXooooooooooooooooooooooooXXXXXXXX            ",
"            XXXXXXXXooooooooooooooooooooooooXXXXXXXX            ",
"            XXXXXXXXooooooooooooooooooooooooXXXXXXXX            ",
"            XXXXooooooooXXXXXXXXXXXXXXXXooooooooXXXX            ",
"            XXXXooooooooXXXXXXXXXXXXXXXXooooooooXXXX            ",
"            XXXXooooooooXXXXXXXXXXXXXXXXooooooooXXXX            ",
"            XXXXooooooooXXXXXXXXXXXXXXXXooooooooXXXX            ",
"            XXXXooooXXXXooooooooooooooooXXXXooooXXXX            ",
"            XXXXooooXXXXooooooooooooooooXXXXooooXXXX            ",
"            XXXXooooXXXXooooooooooooooooXXXXooooXXXX            ",
"            XXXXooooXXXXooooooooooooooooXXXXooooXXXX            ",
"            XXXXooooXXXXooooooooooooooooXXXXooooXXXX            ",
"            XXXXooooXXXXooooooooooooooooXXXXooooXXXX            ",
"            XXXXooooXXXXooooooooooooooooXXXXooooXXXX            ",
"            XXXXooooXXXXooooooooooooooooXXXXooooXXXX            ",
"            XXXXooooXXXXooooooooooooooooXXXXooooXXXX            ",
"            XXXXooooXXXXooooooooooooooooXXXXooooXXXX            ",
"            XXXXooooXXXXooooooooooooooooXXXXooooXXXX            ",
"            XXXXooooXXXXooooooooooooooooXXXXooooXXXX            ",
"            XXXXooooooooXXXXXXXXXXXXXXXXooooooooXXXX            ",
"            XXXXooooooooXXXXXXXXXXXXXXXXooooooooXXXX            ",
"            XXXXooooooooXXXXXXXXXXXXXXXXooooooooXXXX            ",
"            XXXXooooooooXXXXXXXXXXXXXXXXooooooooXXXX            ",
"            XXXXXXXXooooooooooooooooooooooooXXXXXXXX            ",
"            XXXXXXXXooooooooooooooooooooooooXXXXXXXX            ",
"            XXXXXXXXooooooooooooooooooooooooXXXXXXXX            ",
"            XXXXXXXXooooooooooooooooooooooooXXXXXXXX            ",
"            ....XXXXXXXXXXXXXXXXXXXXXXXXXXXXXXXX....            ",
"            ....XXXXXXXXXXXXXXXXXXXXXXXXXXXXXXXX....            ",
"            ....XXXXXXXXXXXXXXXXXXXXXXXXXXXXXXXX....            ",
"            ....XXXXXXXXXXXXXXXXXXXXXXXXXXXXXXXX....            ",
"            ........................................            ",
"            ........................................            ",
"            ........................................            ",
"            ........................................            ",
"                ................................                ",
"                ................................                ",
"                ................................                ",
"                ................................                ",
"                                                                ",
"                                                                ",
"                                                                ",
"                                                                ",
"                                                                ",
"                                                                ",
"                                                                ",
"                                                                ",
"                                                                ",
"                                                                ",
"                                                                ",
"                                                                "
};
