/* XPM */
static char *result[] = {
/* columns rows colors chars-per-pixel */
"32 32 13 1 ",
"  c black",
". c #453625",
"X c #12274D",
"o c #A84111",
"O c #FF4D00",
"+ c #1E1B80",
"@ c #4C63E0",
"# c #748F93",
"$ c #3494CB",
"% c #FCA89D",
"& c #FAFA82",
"* c #DEF9FC",
"= c None",
/* pixels */
"================================",
"===============@@@@@@@==========",
"==============@@@@@@============",
"=============@@@@@@@=======oo===",
"==========#########@======oooo==",
"=========$+++++++++##=====ooo===",
"=========+++%%%%%++++$====oooo==",
"==========++ %%  %+++$====ooo===",
"===========+%%%%%%+=======ooo===",
"=========*=**%%***+*=======o====",
"===$$$==*************======o====",
"==$*XX$==***********=======o====",
"==$XXX$==@***********@===%=o%===",
"==$%XX$=**************@=@@%%%===",
"==%%X%$=@**********@@+@@@+%%+@==",
"===%%%%@@@**@***@@**+@@@@+%%+@==",
"===@+++@@@+@@@*@@@@+@@@@@++o+@==",
"===@+++@@@@++@@@+++@@@@@@@+o+@==",
"===@++@@@@@@@@@@@@@@@=@@@@@o@===",
"====@@@@@=@@@@@@@@@@@=@@@@@o====",
"======@@==O@@@@@@@@@O==@@@=o====",
"==========@OOOOOO&&O@===@==o====",
"==========@@@@@@@&&@@======o====",
"=========@@@@@@@O@O@@@=====o====",
"=========@@@@@@@O@O@@@=====o====",
"=========@@@@@@@O@O@@@=====o====",
"=========@@@@@@@@@@@@@=====o====",
"=========@@@@@@@@@@@@@=====o====",
"===========.@@@@@@@@@@=====o====",
"==========....=@@@@@@===========",
"=================...============",
"================================"
};
